Coordinates
version=1
nRows=26
nColumns=24
inDegrees=yes

Units are S.I. units (second, meters, Newtons, ...)
Angles are in degrees.

endheader
time	pelvis_tilt	pelvis_list	pelvis_rotation	pelvis_tx	pelvis_ty	pelvis_tz	hip_flexion_r	hip_adduction_r	hip_rotation_r	knee_angle_r	ankle_angle_r	subtalar_angle_r	mtp_angle_r	hip_flexion_l	hip_adduction_l	hip_rotation_l	knee_angle_l	ankle_angle_l	subtalar_angle_l	mtp_angle_l	lumbar_extension	lumbar_bending	lumbar_rotation
      5.80000000	      2.23651580	      1.03090829	      9.74651122	      0.33910940	      0.89028230	     -0.21544884	      3.08117412	      4.27874526	     -4.66742426	    -12.00622127	     14.64019340	     -0.55923272	      0.00000000	     20.31234049	      2.67282779	     -1.23559439	    -76.31669654	    -14.51435379	     -5.21123627	      0.00000000	    -24.86231249	      0.68788741	     -9.37270482
      5.81000000	      2.19506993	      1.28566390	      9.09795578	      0.34925489	      0.89114315	     -0.21482571	      2.05800585	      4.14882999	     -4.30275508	    -11.36207626	     14.88107932	     -0.24949819	      0.00000000	     21.63262408	      2.99780022	     -1.77839095	    -75.96904556	    -12.00782316	     -4.34702616	      0.00000000	    -24.88061208	      0.07721552	     -8.53026866
      5.82000000	      2.16843952	      1.51575160	      8.44371189	      0.35929163	      0.89187808	     -0.21415225	      1.05167859	      4.03817149	     -3.83524849	    -10.74799870	     15.05163729	     -0.09416168	      0.00000000	     22.85891437	      3.25197001	     -2.31170749	    -75.32226409	     -9.56380065	     -3.82054370	      0.00000000	    -24.92868086	     -0.50073398	     -7.68160133
      5.83000000	      2.11389418	      1.79342737	      7.83951530	      0.36923044	      0.89247325	     -0.21357961	      0.11363994	      3.84389672	     -3.43868919	    -10.20875624	     15.28765844	      0.11020405	      0.00000000	     24.01327665	      3.56221611	     -2.78636567	    -74.34761164	     -7.24611499	     -3.61777801	      0.00000000	    -24.96114945	     -1.11025714	     -6.96559848
      5.84000000	      2.06077411	      2.06811490	      7.24230570	      0.37908779	      0.89294811	     -0.21303318	     -0.78657087	      3.63410881	     -3.02168353	     -9.72642925	     15.52233962	      0.28160821	      0.00000000	     25.06682481	      3.84979686	     -3.23306557	    -73.05100269	     -5.11784672	     -3.76563449	      0.00000000	    -25.01442012	     -1.70425220	     -6.27559836
      5.85000000	      2.00338406	      2.34361221	      6.65889688	      0.38888079	      0.89330174	     -0.21254909	     -1.64749832	      3.40210087	     -2.58787540	     -9.29710351	     15.76118806	      0.42590253	      0.00000000	     26.01832922	      4.13084553	     -3.63761523	    -71.43102749	     -3.21474167	     -4.20075395	      0.00000000	    -25.07583881	     -2.28275592	     -5.62309708
      5.86000000	      1.93943936	      2.60947565	      6.09184178	      0.39863233	      0.89351045	     -0.21212089	     -2.46739287	      3.16101726	     -2.15722253	     -8.92031386	     16.02288894	      0.55002157	      0.00000000	     26.86862718	      4.39674496	     -3.99173941	    -69.49859291	     -1.54049538	     -4.82486529	      0.00000000	    -25.13620116	     -2.83812295	     -5.01438652
      5.87000000	      1.82518130	      2.85495624	      5.60389594	      0.40840744	      0.89354371	     -0.21194050	     -3.21985372	      2.91285419	     -1.79881482	     -8.57138151	     16.26005822	      0.66807650	      0.00000000	     27.65733181	      4.70262940	     -4.19128778	    -67.25794205	     -0.09046823	     -5.47084121	      0.00000000	    -25.12766737	     -3.30999515	     -4.46794505
      5.88000000	      1.79318146	      3.06482412	      4.99384959	      0.41818346	      0.89351613	     -0.21154564	     -4.02749864	      2.69434963	     -1.25217964	     -8.26450729	     16.52618592	      0.79674657	      0.00000000	     28.23487939	      4.87556209	     -4.48322050	    -64.72224411	      1.16471551	     -6.17811294	      0.00000000	    -25.22244703	     -3.81393817	     -3.83210998
      5.89000000	      1.79283652	      3.23608890	      4.43741476	      0.42803197	      0.89341972	     -0.21141995	     -4.88182422	      2.49327330	     -0.67488814	     -7.94357259	     16.70704714	      0.85101447	      0.00000000	     28.64872691	      5.06717192	     -4.61193123	    -61.89366818	      2.24357810	     -6.70813972	      0.00000000	    -25.33158506	     -4.17892516	     -3.21390251
      5.90000000	      1.71625767	      3.37228876	      3.94559333	      0.43801657	      0.89303256	     -0.21137980	     -5.64368913	      2.31703375	     -0.17699266	     -7.65874449	     16.93986650	      0.88307780	      0.00000000	     29.01828311	      5.24979239	     -4.62514447	    -58.80163837	      3.24291258	     -6.95697197	      0.00000000	    -25.30703469	     -4.50622025	     -2.72744004
      5.91000000	      1.73227336	      3.47042918	      3.42472308	      0.44805219	      0.89265793	     -0.21138664	     -6.51635060	      2.16441023	      0.47841229	     -7.35692247	     17.08002917	      0.86298927	      0.00000000	     29.14664058	      5.39852485	     -4.54337202	    -55.42451947	      4.07969217	     -7.02081081	      0.00000000	    -25.40533449	     -4.78245892	     -2.11225075
      5.92000000	      1.70123803	      3.52863932	      2.96250261	      0.45828000	      0.89205186	     -0.21147593	     -7.34463752	      2.04722535	      1.07885088	     -7.06890448	     17.22161248	      0.79302107	      0.00000000	     29.17975837	      5.52782879	     -4.34286429	    -51.78370726	      4.82757176	     -6.82318809	      0.00000000	    -25.39314219	     -4.99647086	     -1.62761878
      5.93000000	      1.68192149	      3.54778760	      2.51462384	      0.46864941	      0.89132579	     -0.21162478	     -8.19330395	      1.95846878	      1.70230481	     -6.78552034	     17.33228005	      0.70462662	      0.00000000	     29.04561946	      5.62208199	     -4.04824486	    -47.87281647	      5.41373400	     -6.48731470	      0.00000000	    -25.37658670	     -5.15358458	     -1.15306758
      5.94000000	      1.66554482	      3.52729637	      2.08865349	      0.47920651	      0.89046637	     -0.21180652	     -9.05673584	      1.90389165	      2.30901023	     -6.50450566	     17.41161555	      0.59238016	      0.00000000	     28.74804422	      5.67434441	     -3.66177337	    -43.70450630	      5.79952734	     -6.10435751	      0.00000000	    -25.32887237	     -5.25652541	     -0.70861587
      5.95000000	      1.65948828	      3.45388240	      1.67156876	      0.48994902	      0.88947791	     -0.21200052	     -9.93800648	      1.89616170	      2.90211574	     -6.23394827	     17.45683492	      0.47680167	      0.00000000	     28.28268064	      5.65844477	     -3.20622065	    -39.30934991	      5.93568537	     -5.78228555	      0.00000000	    -25.26213155	     -5.29990569	     -0.26742394
      5.96000000	      1.58726168	      3.32447773	      1.27447534	      0.50095698	      0.88825650	     -0.21219596	    -10.75700210	      1.93757694	      3.42815332	     -5.98081209	     17.48188037	      0.43409844	      0.00000000	     27.74747161	      5.55830105	     -2.73306366	    -34.75300752	      5.77715720	     -5.56286071	      0.00000000	    -25.06071629	     -5.28614931	      0.15436590
      5.97000000	      1.71785850	      3.09908804	      0.86103006	      0.51202871	      0.88712627	     -0.21232910	    -11.79561984	      2.07953634	      4.04025652	     -5.73640828	     17.40523377	      0.25107387	      0.00000000	     26.89307380	      5.31856455	     -2.24507201	    -30.13116953	      5.43417932	     -5.40350913	      0.00000000	    -25.12541302	     -5.16569420	      0.64892831
      5.98000000	      1.71722538	      2.81154547	      0.41307264	      0.52338678	      0.88567408	     -0.21241342	    -12.66499289	      2.26225462	      4.59880975	     -5.57835479	     17.36984894	      0.19982173	      0.00000000	     26.10921765	      4.95896169	     -1.92207781	    -25.54798172	      4.83142297	     -5.42480326	      0.00000000	    -24.96446614	     -5.00293173	      1.19115236
      5.99000000	      1.71328187	      2.40582986	     -0.07047485	      0.53483435	      0.88409487	     -0.21248226	    -13.48815126	      2.54108554	      5.19130696	     -5.51764237	     17.31360142	      0.28295683	      0.00000000	     25.34499535	      4.42921829	     -1.83532271	    -21.19654014	      4.10996507	     -5.41783860	      0.00000000	    -24.79445218	     -4.70385691	      1.83525302
      6.00000000	      1.80600701	      2.01425338	     -0.56293202	      0.54649774	      0.88256933	     -0.21251515	    -14.40032957	      2.79039939	      5.81876350	     -5.52557112	     17.22031185	      0.30130249	      0.00000000	     24.49948157	      3.88930261	     -2.06310097	    -17.16129143	      3.43527020	     -5.18169382	      0.00000000	    -24.73480114	     -4.44492299	      2.46568363
      6.01000000	      1.96126629	      1.66232724	     -1.03695157	      0.55837948	      0.88110986	     -0.21260832	    -15.36110860	      2.97990885	      6.50018028	     -5.60930814	     17.07598066	      0.26455161	      0.00000000	     23.65278468	      3.40634938	     -2.62988654	    -13.58524952	      2.91750290	     -4.63206156	      0.00000000	    -24.73621586	     -4.23108249	      3.05856952
      6.02000000	      2.14801306	      1.37569138	     -1.47818292	      0.57039948	      0.87974087	     -0.21281631	    -16.30555573	      3.08571162	      7.22822501	     -5.81393751	     16.89449289	      0.19525557	      0.00000000	     22.87279626	      3.03320785	     -3.43641966	    -10.58955464	      2.64701987	     -3.68236452	      0.00000000	    -24.78679458	     -4.08869463	      3.63715420
      6.03000000	      2.33101008	      1.13967844	     -1.89743513	      0.58251874	      0.87845942	     -0.21320234	    -17.15102811	      3.12103912	      7.93625208	     -6.21051266	     16.71208455	      0.20846286	      0.00000000	     22.20916507	      2.77022253	     -4.31359184	     -8.23630644	      2.66956486	     -2.58507242	      0.00000000	    -24.84405927	     -3.97727464	      4.15245837
      6.04000000	      2.51836651	      0.97594080	     -2.25121176	      0.59476632	      0.87730709	     -0.21382631	    -17.91322180	      3.08005541	      8.56508811	     -6.78402385	     16.49316318	      0.30928867	      0.00000000	     21.64987265	      2.64958183	     -5.04445285	     -6.54224775	      2.92684673	     -1.55843953	      0.00000000	    -24.91250802	     -3.90003447	      4.57165127
      6.05000000	      2.72067158	      0.93932455	     -2.50621471	      0.60717077	      0.87629250	     -0.21455802	    -18.59778535	      2.94201229	      9.09291092	     -7.54816017	     16.25133569	      0.41371675	      0.00000000	     21.17631457	      2.70027703	     -5.52116767	     -5.50420281	      3.37486210	     -0.54812511	      0.00000000	    -25.00853802	     -3.97151357	      4.85092262
